<svg xmlns="http://www.w3.org/2000/svg" version="1.1">
    <symbol id="cloud" viewBox="0 0 26 19">
         <path fill="#fff" d="m20.6 8 .1-1.4A5.8 5.8 0 0 0 9.8 4c-.3-.2-.8-.3-1.3-.3-2 0-3.6 1.6-3.6 3.6l.1.8a5.1 5.1 0 0 0-4.4 5c0 2.8 2.3 5.1 5 5.1H20a5 5 0 0 0 .6-10.1Z"/>
    </symbol>
    <symbol  id='flag' viewBox="0 0 32 32">
      <path fill="#ED4C5C" d="M24 3.3C21.6 1.9 19 1 16 1v2.3h8Z"/>
      <path fill="#fff" d="M16 5.6h10.8L24 3.3h-8v2.3Z"/>
      <path fill="#ED4C5C" d="M16 7.9h12.6c-.5-.9-1.1-1.6-1.8-2.3H16v2.3Z"/>
      <path fill="#fff" d="M16 10.2h13.9l-1.3-2.3H16v2.3Z"/>
      <path fill="#ED4C5C" d="M16 12.5h14.6l-.8-2.3H16v2.3Z"/>
      <path fill="#fff" d="M16 14.8h15l-.4-2.3H16v2.3Z"/>
      <path fill="#ED4C5C" d="M31 14.8H16V16H1v1.1h30v-2.3Z"/>
      <path fill="#fff" d="M1.4 19.4h29.2a8 8 0 0 0 .3-2.3H1l.4 2.3Z"/>
      <path fill="#ED4C5C" d="M2.1 21.8H30l.7-2.4H1.4l.7 2.4Z"/>
      <path fill="#fff" d="M3.3 24h25.4l1.2-2.3H2l1.2 2.4Z"/>
      <path fill="#ED4C5C" d="M5.2 26.4h21.6l1.8-2.3H3.4l1.8 2.3Z"/>
      <path fill="#fff" d="M8 28.6h16c1.1-.6 2-1.4 2.9-2.3H5c1 1.1 2 1.7 3 2.4Z"/>
      <path fill="#ED4C5C" d="M16 31c3 0 5.7-.9 8-2.4H8c2.3 1.5 5 2.4 8 2.4Z"/>
      <path fill="#428BC1" d="M8 3.3a16 16 0 0 0-4.7 4.6 14.4 14.4 0 0 0-2.2 6.9L1 16h15V1c-3 0-5.7.9-8 2.3Z"/>
      <path fill="#fff" d="m12.5 1.5.3.8h.7l-.6.5.2.7-.6-.5-.6.5.2-.8-.6-.5h.8l.2-.7Zm2 3 .3.8h.7l-.6.5.2.7-.6-.5-.6.5.2-.8-.6-.5h.8l.2-.7Zm-4 0 .3.8h.7l-.6.5.2.7-.6-.5-.6.5.2-.8-.6-.5h.8l.2-.7Zm2 3 .3.8h.7l-.6.4.2.8-.6-.4-.6.4.2-.8-.6-.4h.8l.2-.8Zm-4 0 .3.8h.7l-.6.4.2.8-.6-.4-.6.4.2-.8-.6-.4h.8l.2-.8Zm-4 0 .3.8h.7l-.6.4.2.8-.6-.4-.6.4.2-.8-.6-.4h.8l.2-.8Zm10 3 .3.8h.7l-.6.4.2.8-.6-.4-.6.4.2-.8-.6-.4h.8l.2-.8Zm-4 0 .3.8h.7l-.6.4.2.8-.6-.4-.6.4.2-.8-.6-.4h.8l.2-.8Zm-4 0 .3.8h.7l-.6.4.2.8-.6-.4-.6.4.2-.8-.6-.4h.8l.2-.8Zm6 3 .3.8h.7l-.6.4.2.8-.6-.4-.6.4.2-.8-.6-.4h.8l.2-.8Zm-4 0 .3.8h.7l-.6.4.2.8-.6-.4-.6.4.2-.8-.6-.4h.8l.2-.8Zm-4 0 .3.8h.7l-.6.4.2.8-.6-.4-.6.4.2-.8-.6-.4h.8l.2-.8Zm1.4-7 .6-.5.6.5-.2-.8.6-.5h-.8l-.2-.7-.2.8h-.7l.6.4-.3.8Zm-4 6 .6-.4.6.4-.2-.8.6-.4h-.7l-.3-.8-.2.8h-.5l-.1.1.4.3-.2.8Z"/>
    </symbol>
    <symbol id="burger" viewBox="0 0 32 32">
      <path  d="M4,10h24c1.104,0,2-0.896,2-2s-0.896-2-2-2H4C2.896,6,2,6.896,2,8S2.896,10,4,10z M28,14H4c-1.104,0-2,0.896-2,2  s0.896,2,2,2h24c1.104,0,2-0.896,2-2S29.104,14,28,14z M28,22H4c-1.104,0-2,0.896-2,2s0.896,2,2,2h24c1.104,0,2-0.896,2-2  S29.104,22,28,22z"/>
    </symbol>
    <symbol id="close" viewBox="0 0 32 32">
      <path  d="M29.691 32l-13.691-13.691-13.691 13.691-2.309-2.309 13.691-13.691-13.691-13.691 2.309-2.309 13.691 13.691 13.691-13.691 2.309 2.309-13.691 13.691 13.691 13.691z"/>
    </symbol>
</svg>